# File created by Blade
# Date/Time:  Thu Sep 25 15:55:53 2014
# Frame Rate: 120.000 fps
#------------------------------------------------------
:FULLY-SPECIFIED
:DEGREES
472
root -4.737429 34.960103 -0.336609 20.404224 19.607470 40.601349
Spine -0.526953 -3.313753 -24.686165
Head -21.052893 -20.136148 2.818174
LeftShoulder 5.425372 11.592020 10.094433
LeftArm 48.326196 11.526506 -48.385404
LeftForeArm 19.242166 0.000000 36.342195
LeftHand -22.624549 -0.000000 -0.546276
LeftHandThumb1 -26.253704 0.000000 33.147579
RightShoulder -7.940250 12.256659 -29.367274
RightArm -11.734019 4.845661 86.730257
RightForeArm -28.176495 -0.000000 53.248954
RightHand -3.328557 -0.000000 -0.687910
RightHandThumb1 -24.326973 -0.000000 -32.862282
LeftUpLeg -43.665099 39.711821 38.142527
LeftLeg 5.716721 -0.000000 -0.000000
LeftFoot 36.763367 30.876281 -5.568139
LeftToeBase 9.665580 -0.000000 -0.000000
RightUpLeg -10.076214 -24.494000 -31.354703
RightLeg 14.136421 -0.000000 -0.000000
RightFoot -13.176531 -9.027135 3.335316
RightToeBase 3.019192 -0.000000 -0.000000
473
root -4.810809 34.930792 -0.316824 20.130824 19.276076 40.065780
Spine -0.738039 -3.307374 -24.172471
Head -20.907273 -19.698701 2.620045
LeftShoulder 4.975207 11.948031 10.066071
LeftArm 47.331589 10.798929 -48.978011
LeftForeArm 19.114025 -0.000000 37.556380
LeftHand -22.681152 0.000000 -0.253429
LeftHandThumb1 -26.253704 0.000000 33.147579
RightShoulder -8.039417 12.157798 -29.361057
RightArm -11.843212 4.029710 86.576802
RightForeArm -28.023522 -0.000000 52.829176
RightHand -3.316472 -0.000000 -0.604951
RightHandThumb1 -24.326973 -0.000000 -32.862282
LeftUpLeg -42.269106 38.072316 37.808870
LeftLeg 6.133300 -0.000000 -0.000000
LeftFoot 36.453790 30.767403 -6.161485
LeftToeBase 10.384235 -0.000000 -0.000000
RightUpLeg -10.317101 -23.831020 -30.716622
RightLeg 14.047414 -0.000000 -0.000000
RightFoot -13.126678 -9.334367 3.183583
RightToeBase 2.930053 -0.000000 -0.000000
474
root -4.873216 34.902190 -0.298462 19.859524 18.863582 39.564280
Spine -0.973802 -3.209180 -23.689624
Head -20.714233 -19.227042 2.323319
LeftShoulder 4.556752 12.362594 9.972825
LeftArm 46.409443 10.051074 -49.501084
LeftForeArm 18.811088 0.000000 38.721891
LeftHand -22.777857 -0.000000 -0.355365
LeftHandThumb1 -26.253704 0.000000 33.147579
RightShoulder -8.176095 12.022784 -29.406733
RightArm -11.911675 3.431165 86.499394
RightForeArm -28.094944 -0.000000 52.385110
RightHand -3.294421 -0.000000 -0.526187
RightHandThumb1 -24.326973 -0.000000 -32.862282
LeftUpLeg -40.843844 36.397754 37.417765
LeftLeg 6.571557 -0.000000 -0.000000
LeftFoot 36.084838 30.891815 -7.089174
LeftToeBase 9.859733 -0.000000 -0.000000
RightUpLeg -10.589837 -23.156355 -30.158958
RightLeg 14.005287 -0.000000 -0.000000
RightFoot -13.117632 -9.560862 2.985137
RightToeBase 2.948566 -0.000000 -0.000000
475
root -4.934401 34.870700 -0.285980 19.589027 18.428579 39.030828
Spine -1.192812 -3.087994 -23.163379
Head -20.625530 -18.713000 2.014267
LeftShoulder 4.082265 12.895065 9.865774
LeftArm 45.713164 9.317162 -49.909297
LeftForeArm 18.679297 0.000000 39.731090
LeftHand -22.644861 -0.000000 0.084494
LeftHandThumb1 -26.253704 0.000000 33.147579
RightShoulder -8.395226 11.906979 -29.507145
RightArm -11.938893 2.696216 86.427827
RightForeArm -27.977015 -0.000000 51.897423
RightHand -3.209965 -0.000000 -0.377399
RightHandThumb1 -24.326973 -0.000000 -32.862282
LeftUpLeg -39.531704 34.840574 36.877060
LeftLeg 6.976412 -0.000000 -0.000000
LeftFoot 35.906333 30.680123 -7.855236
LeftToeBase 9.585981 -0.000000 -0.000000
RightUpLeg -10.901526 -22.431652 -29.592326
RightLeg 14.024286 -0.000000 -0.000000
RightFoot -13.161672 -9.661360 2.878867
RightToeBase 2.879773 -0.000000 -0.000000
476
root -4.989877 34.841189 -0.273977 19.286418 17.922986 38.512573
Spine -1.363621 -2.845563 -22.686481
Head -20.596360 -18.178800 1.814472
LeftShoulder 3.711783 13.314735 9.795772
LeftArm 44.917261 8.674014 -50.314172
LeftForeArm 18.366830 0.000000 40.814640
LeftHand -22.893840 -0.000000 -0.111081
LeftHandThumb1 -26.253704 0.000000 33.147579
RightShoulder -8.638590 11.720181 -29.581127
RightArm -11.899653 2.247129 86.375905
RightForeArm -28.132011 -0.000000 51.414742
RightHand -3.094471 -0.000000 -0.074382
RightHandThumb1 -24.326973 -0.000000 -32.862282
LeftUpLeg -38.245349 33.361974 36.140978
LeftLeg 7.259567 -0.000000 -0.000000
LeftFoot 35.794999 30.839044 -8.734463
LeftToeBase 9.648588 -0.000000 -0.000000
RightUpLeg -11.211511 -21.721702 -29.096706
RightLeg 14.097757 -0.000000 -0.000000
RightFoot -13.270698 -9.541140 2.899054
RightToeBase 2.715649 -0.000000 -0.000000
477
root -5.039664 34.806288 -0.265677 18.990849 17.349183 37.895448
Spine -1.594027 -2.553770 -22.131761
Head -20.619234 -17.614927 1.724466
LeftShoulder 3.329317 13.836716 9.768307
LeftArm 44.228744 8.024881 -50.771243
LeftForeArm 18.390909 0.000000 41.851762
LeftHand -23.054769 -0.000000 0.092962
LeftHandThumb1 -26.253704 0.000000 33.147579
RightShoulder -9.033015 11.340152 -29.291145
RightArm -11.808945 -2.325357 85.364842
RightForeArm -25.482124 -0.000000 51.550168
RightHand -4.554457 0.000000 -2.499922
RightHandThumb1 -24.326973 -0.000000 -32.862282
LeftUpLeg -36.954924 31.983088 35.478135
LeftLeg 7.632389 -0.000000 -0.000000
LeftFoot 35.308892 30.665881 -10.053627
LeftToeBase 9.725199 -0.000000 -0.000000
RightUpLeg -11.646580 -21.087044 -28.519878
RightLeg 14.283773 -0.000000 -0.000000
RightFoot -13.425253 -9.196553 2.943161
RightToeBase 2.628367 -0.000000 -0.000000
478
root -5.086413 34.774216 -0.255469 18.704295 16.774042 37.261601
Spine -1.848322 -2.311254 -21.432403
Head -20.650274 -17.049935 1.292246
LeftShoulder 2.939276 14.365650 9.607120
LeftArm 43.435906 7.406381 -51.195596
LeftForeArm 18.757259 0.000000 42.941101
LeftHand -23.381438 -0.000000 0.028482
LeftHandThumb1 -26.253704 0.000000 33.147579
RightShoulder -9.160416 11.212667 -29.525161
RightArm -11.802734 -2.063428 85.477891
RightForeArm -26.025142 -0.000000 50.994869
RightHand -4.080586 -0.000000 -1.866618
RightHandThumb1 -24.326973 -0.000000 -32.862282
LeftUpLeg -35.700671 30.699934 34.677204
LeftLeg 7.816264 -0.000000 -0.000000
LeftFoot 34.973343 30.252597 -11.239306
LeftToeBase 9.597922 -0.000000 -0.000000
RightUpLeg -12.055563 -20.460828 -27.928315
RightLeg 14.412808 -0.000000 -0.000000
RightFoot -13.572970 -8.929628 3.059189
RightToeBase 2.562614 -0.000000 -0.000000
479
root -5.123904 34.744559 -0.249151 18.448061 16.178862 36.619394
Spine -2.126824 -2.072882 -20.710083
Head -20.725456 -16.549975 0.900560
LeftShoulder 2.521642 14.908821 9.457303
LeftArm 42.697355 6.836670 -51.694025
LeftForeArm 19.274788 -0.000000 43.927420
LeftHand -23.548746 -0.000000 0.378653
LeftHandThumb1 -26.253704 0.000000 33.147579
RightShoulder -9.307103 11.042272 -29.678745
RightArm -11.737262 -2.289422 85.406990
RightForeArm -26.013069 -0.000000 50.474795
RightHand -3.785458 -0.000000 -1.599582
RightHandThumb1 -24.326973 -0.000000 -32.862282
LeftUpLeg -34.488040 29.468410 33.796797
LeftLeg 7.971850 -0.000000 -0.000000
LeftFoot 34.349816 29.702268 -12.680086
LeftToeBase 9.505400 -0.000000 -0.000000
RightUpLeg -12.519416 -20.011369 -27.327349
RightLeg 14.585576 -0.000000 -0.000000
RightFoot -13.729785 -8.456980 3.189916
RightToeBase 2.420161 -0.000000 -0.000000
480
root -5.136579 34.719267 -0.225370 18.321712 16.207696 36.116523
Spine -2.411514 -2.517248 -19.785073
Head -20.704197 -16.059632 0.276243
LeftShoulder 1.966073 15.558096 9.113574
LeftArm 41.994296 6.381486 -52.251435
LeftForeArm 20.086698 0.000000 44.857852
LeftHand -23.902338 -0.000000 0.791599
LeftHandThumb1 -26.253704 0.000000 33.147579
RightShoulder -9.438201 10.832941 -29.878535
RightArm -11.734661 -3.009814 85.196338
RightForeArm -25.866804 -0.000000 50.056258
RightHand -3.813343 0.000000 -1.580446
RightHandThumb1 -24.326973 -0.000000 -32.862282
LeftUpLeg -33.862812 27.739693 32.645378
LeftLeg 8.110052 -0.000000 -0.000000
LeftFoot 33.760576 29.148941 -13.992910
LeftToeBase 9.150915 -0.000000 -0.000000
RightUpLeg -12.564716 -20.578432 -26.770434
RightLeg 14.565977 -0.000000 -0.000000
RightFoot -13.867975 -7.398697 3.361351
RightToeBase 2.184776 -0.000000 -0.000000
